HIERARCHY
ROOT Pelvis
{
	OFFSET 0.000000 0.000000 0.000000
	CHANNELS 6 Xposition Yposition Zposition Xrotation Yrotation Zrotation
	JOINT LeftUpLeg_virtual
	{
		OFFSET 0.000000 0.000000 0.000000
		CHANNELS 3 Xrotation Yrotation Zrotation
		JOINT LeftUpLeg
		{
			OFFSET 18.735201 -5.666702 -4.541200
			CHANNELS 3 Xrotation Yrotation Zrotation
			JOINT LeftLeg
			{
				OFFSET -0.021200 -31.938179 0.493100
				CHANNELS 3 Xrotation Yrotation Zrotation
				JOINT LeftFoot
				{
					OFFSET 0.021200 -31.938179 -4.336299
					CHANNELS 3 Xrotation Yrotation Zrotation
					JOINT LeftToeBase
					{
						OFFSET 0.943001 -26.722000 15.023500
						CHANNELS 3 Xrotation Yrotation Zrotation
						End Site
						{
							OFFSET 0 0 0
						}
					}
				}
			}
		}
	}
	JOINT RightUpLeg_virtual
	{
		OFFSET 0.000000 0.000000 0.000000
		CHANNELS 3 Xrotation Yrotation Zrotation
		JOINT RightUpLeg
		{
			OFFSET -18.735201 -5.666702 -4.541200
			CHANNELS 3 Xrotation Yrotation Zrotation
			JOINT RightLeg
			{
				OFFSET 0.018946 -31.938133 0.493100
				CHANNELS 3 Xrotation Yrotation Zrotation
				JOINT RightFoot
				{
					OFFSET -0.018946 -31.938126 -4.336299
					CHANNELS 3 Xrotation Yrotation Zrotation
					JOINT RightToeBase
					{
						OFFSET -0.943001 -26.722004 15.023500
						CHANNELS 3 Xrotation Yrotation Zrotation
						End Site
						{
							OFFSET 0 0 0
						}
					}
				}
			}
		}
	}
	JOINT Hips_virtual
	{
		OFFSET 0.000000 0.000000 0.000000
		CHANNELS 3 Xrotation Yrotation Zrotation
		JOINT Hips
		{
			OFFSET -0.000000 -0.000000 -0.000000
			CHANNELS 3 Xrotation Yrotation Zrotation
			JOINT Spine
			{
				OFFSET 0.000000 10.199997 -0.299500
				CHANNELS 3 Xrotation Yrotation Zrotation
				JOINT Spine1
				{
					OFFSET 0.000000 11.900002 -1.516600
					CHANNELS 3 Xrotation Yrotation Zrotation
					JOINT Spine2
					{
						OFFSET 0.000000 13.600006 -2.842500
						CHANNELS 3 Xrotation Yrotation Zrotation
						JOINT Neck_virtual
						{
							OFFSET 0.000000 0.000000 0.000000
							CHANNELS 3 Xrotation Yrotation Zrotation
							JOINT Neck
							{
								OFFSET 0.000000 9.624100 -2.890100
								CHANNELS 3 Xrotation Yrotation Zrotation
								JOINT Head
								{
									OFFSET 0.000000 14.068802 -1.351900
									CHANNELS 3 Xrotation Yrotation Zrotation
									End Site
									{
										OFFSET 0 0 0
									}
								}
							}
						}
						JOINT LeftShoulder_virtual
						{
							OFFSET 0.000000 0.000000 0.000000
							CHANNELS 3 Xrotation Yrotation Zrotation
							JOINT LeftShoulder
							{
								OFFSET 15.263000 10.923401 -0.547700
								CHANNELS 3 Xrotation Yrotation Zrotation
								JOINT LeftArm
								{
									OFFSET 25.438599 -2.830597 -13.032500
									CHANNELS 3 Xrotation Yrotation Zrotation
									JOINT LeftForeArm
									{
										OFFSET 29.960503 0.000000 0.000000
										CHANNELS 3 Xrotation Yrotation Zrotation
										JOINT LeftHand
										{
											OFFSET 27.849251 0.000000 0.000000
											CHANNELS 3 Xrotation Yrotation Zrotation
											End Site
											{
												OFFSET 0 0 0
											}
										}
									}
								}
							}
						}
						JOINT RightShoulder_virtual
						{
							OFFSET 0.000000 0.000000 0.000000
							CHANNELS 3 Xrotation Yrotation Zrotation
							JOINT RightShoulder
							{
								OFFSET -15.263000 10.923401 -0.547700
								CHANNELS 3 Xrotation Yrotation Zrotation
								JOINT RightArm
								{
									OFFSET -25.438599 -2.830597 -13.032500
									CHANNELS 3 Xrotation Yrotation Zrotation
									JOINT RightForeArm
									{
										OFFSET -29.960503 0.000000 0.000000
										CHANNELS 3 Xrotation Yrotation Zrotation
										JOINT RightHand
										{
											OFFSET -27.849251 0.000000 0.000000
											CHANNELS 3 Xrotation Yrotation Zrotation
											End Site
											{
												OFFSET 0 0 0
											}
										}
									}
								}
							}
						}
					}
				}
			}
		}
	}
}
MOTION
Frames: 5
Frame Time: 0.03333333
4.877196 89.980843 7.024103 0.000000 0.000000 0.000000 12.257921 -26.131196 1.319343 -24.328430 5.212695 13.365540 38.360590 4.567736 -2.475201 -9.561769 5.915246 -6.371371 0.000000 0.000000 0.000000 11.513265 0.284329 1.352986 -15.325546 -6.225370 -13.452962 37.754564 -21.419562 8.749886 -15.431240 -27.070567 10.020769 0.000000 0.000000 0.000000 4.806979 14.922836 -0.428019 -6.196279 4.731434 6.571423 11.058945 10.521525 2.418759 5.013260 6.444568 1.687835 0.000000 0.000000 0.000000 -0.289558 1.411337 -0.643611 -2.147643 -0.604702 0.381303 0.000000 0.000000 0.000000 2.607071 8.672529 1.484874 -2.451580 9.005720 13.688490 -79.446513 3.421555 -6.334162 -28.329186 -34.185189 -0.408275 0.000000 0.000000 0.000000 5.987878 5.125848 -1.059734 2.962123 9.857638 1.479964 10.562134 -24.574215 71.650563 0.861672 -1.480158 24.272684 0.000000 0.000000 0.000000 
5.355214 89.686760 7.284204 0.000000 0.000000 0.000000 12.459540 -26.397957 1.091678 -24.155729 5.298359 13.067406 39.274206 3.740011 -2.530617 -8.838171 5.066103 -6.970204 0.000000 0.000000 0.000000 11.424745 -0.162418 1.235748 -15.436158 -6.305422 -13.630813 35.311176 -21.524385 8.480059 -17.201767 -27.091163 9.906093 0.000000 0.000000 0.000000 6.090819 18.642643 -0.869407 -7.264089 4.916173 6.592847 9.725270 11.389263 1.491622 4.517486 6.941950 1.004448 0.000000 0.000000 0.000000 -0.296393 1.652246 -0.834775 -2.396311 -0.857939 0.573461 0.000000 0.000000 0.000000 2.414494 9.711958 0.792624 -2.950536 11.172266 12.381931 -85.538065 7.004829 -5.315120 -33.565742 -33.054202 -1.402914 0.000000 0.000000 0.000000 6.244329 5.782550 -1.502825 2.589570 10.837849 1.299663 10.484105 -23.313761 70.957572 1.684098 -3.022370 24.784161 0.000000 0.000000 0.000000 
5.682606 89.306831 7.454655 0.000000 0.000000 0.000000 12.730590 -27.063802 0.864939 -24.058860 5.331988 12.744033 40.356555 3.059661 -2.593540 -7.987340 4.363390 -7.491448 0.000000 0.000000 0.000000 11.364808 -0.638661 1.223339 -15.584518 -6.419273 -13.732322 32.613535 -21.441921 8.172344 -19.096533 -26.953685 9.894627 0.000000 0.000000 0.000000 7.389514 22.010706 -1.308043 -8.174197 4.855106 7.029138 8.287616 12.158104 0.639369 3.968640 7.370139 0.346947 0.000000 0.000000 0.000000 -0.416565 1.886573 -1.034076 -2.693758 -1.094408 0.759062 0.000000 0.000000 0.000000 2.437909 10.381903 -0.096739 -3.043128 12.049894 10.250262 -89.457890 10.253630 -5.585231 -37.795788 -33.038889 -2.947322 0.000000 0.000000 0.000000 6.675946 6.420374 -1.933093 2.397483 11.814171 1.173216 10.754114 -20.930100 69.423190 2.624849 -3.103362 24.766430 0.000000 0.000000 0.000000 
5.846936 88.879601 7.604628 0.000000 0.000000 0.000000 13.097314 -28.087358 0.671516 -23.989912 5.317384 12.420182 41.551835 2.553984 -2.664810 -7.036488 3.837930 -7.918702 0.000000 0.000000 0.000000 11.492393 -1.141981 1.398773 -15.546480 -6.610543 -13.662690 30.208929 -21.248541 7.927040 -20.775139 -26.733704 9.990302 0.000000 0.000000 0.000000 8.738499 25.254034 -1.759167 -8.855690 5.221496 7.922139 7.267899 12.872459 -0.028104 3.655551 7.757889 -0.206350 0.000000 0.000000 0.000000 -0.365266 2.157384 -1.187543 -2.913720 -1.281418 0.962915 0.000000 0.000000 0.000000 2.378421 10.847302 -1.125837 -3.111816 12.293962 7.459691 -92.257940 13.253238 -7.165509 -41.939691 -34.355558 -5.589105 0.000000 0.000000 0.000000 7.142682 6.965694 -2.325650 2.210823 12.497977 1.124694 11.440762 -18.075484 67.501701 3.621607 -2.574364 24.464339 0.000000 0.000000 0.000000 
5.825335 88.408264 7.756544 0.000000 0.000000 0.000000 13.600673 -29.337134 0.568060 -23.791518 5.256924 12.116446 42.685008 2.194305 -2.697610 -6.088293 3.444050 -8.198527 0.000000 0.000000 0.000000 11.676142 -1.869400 1.589743 -15.501290 -6.873580 -13.634259 27.913638 -20.990686 7.705772 -22.361911 -26.468259 10.129603 0.000000 0.000000 0.000000 10.130210 27.817743 -2.308309 -9.441085 4.613516 8.320750 6.169678 13.478140 -0.666042 3.310625 8.080485 -0.751004 0.000000 0.000000 0.000000 -0.153568 2.394028 -1.366864 -3.051586 -1.454065 1.142062 0.000000 0.000000 0.000000 2.290282 11.181534 -2.250905 -3.156786 12.216929 4.158878 -93.812218 16.571639 -9.651315 -45.728011 -35.866744 -8.950159 0.000000 0.000000 0.000000 7.612336 7.417397 -2.627037 2.004810 12.927613 1.343119 12.233275 -15.163776 65.357937 4.505676 -1.741405 24.009291 0.000000 0.000000 0.000000 
